<svg width="150" height="136" viewBox="0 0 150 136" fill="none" xmlns="http://www.w3.org/2000/svg">
<circle opacity="0.1" cx="81.6855" cy="67.7413" r="67.5" fill="url(#paint0_linear)"/>
<path fill-rule="evenodd" clip-rule="evenodd" d="M76.6086 66.7426C64.8291 66.7426 55.2798 75.1213 55.2798 85.4569V85.5046C55.2798 95.8403 64.8291 104.219 76.6086 104.219H108.062C109.237 104.219 110.39 104.136 111.513 103.975L117.607 109.14C117.773 109.28 117.994 109.359 118.225 109.359C118.715 109.359 119.113 109.01 119.113 108.579L119.114 101.514C125.275 98.2327 129.391 92.2905 129.391 85.5046V85.4569C129.391 75.1213 119.842 66.7426 108.062 66.7426H76.6086Z" fill="#1D4885"/>
<path d="M81.7822 21.9062H36.8711C20.0431 21.9062 6.40137 33.8758 6.40137 48.641C6.40137 63.4061 20.0431 75.3757 36.8711 75.3757H81.7822C98.6102 75.3757 112.252 63.4061 112.252 48.641C112.252 33.8758 98.6102 21.9062 81.7822 21.9062Z" fill="url(#paint1_linear)"/>
<path fill-rule="evenodd" clip-rule="evenodd" d="M21.0806 67.599V81.5949C21.0806 82.2101 21.649 82.7088 22.3501 82.7088C22.679 82.7088 22.995 82.5969 23.2317 82.3965L34.9534 72.4729L21.0806 67.599Z" fill="url(#paint2_linear)"/>
<path d="M38.9337 51.9828C41.6508 51.9828 43.8533 50.0502 43.8533 47.6663C43.8533 45.2823 41.6508 43.3497 38.9337 43.3497C36.2167 43.3497 34.0142 45.2823 34.0142 47.6663C34.0142 50.0502 36.2167 51.9828 38.9337 51.9828Z" fill="white"/>
<path d="M59.0885 51.9828C61.8055 51.9828 64.0081 50.0502 64.0081 47.6663C64.0081 45.2823 61.8055 43.3497 59.0885 43.3497C56.3715 43.3497 54.1689 45.2823 54.1689 47.6663C54.1689 50.0502 56.3715 51.9828 59.0885 51.9828Z" fill="white"/>
<path d="M79.7189 51.9828C82.4359 51.9828 84.6385 50.0502 84.6385 47.6663C84.6385 45.2823 82.4359 43.3497 79.7189 43.3497C77.0019 43.3497 74.7993 45.2823 74.7993 47.6663C74.7993 50.0502 77.0019 51.9828 79.7189 51.9828Z" fill="white"/>
<defs>
<linearGradient id="paint0_linear" x1="175.768" y1="-203.982" x2="74.592" y2="149.736" gradientUnits="userSpaceOnUse">
<stop stop-color="#5498FF"/>
<stop offset="0.515625" stop-color="#428EFF"/>
<stop offset="1" stop-color="#297FFF"/>
</linearGradient>
<linearGradient id="paint1_linear" x1="133.095" y1="-58.9807" x2="111.644" y2="89.4795" gradientUnits="userSpaceOnUse">
<stop stop-color="#5498FF"/>
<stop offset="0.515625" stop-color="#428EFF"/>
<stop offset="1" stop-color="#297FFF"/>
</linearGradient>
<linearGradient id="paint2_linear" x1="37.6851" y1="44.7413" x2="25.5225" y2="83.7811" gradientUnits="userSpaceOnUse">
<stop stop-color="#5498FF"/>
<stop offset="0.515625" stop-color="#428EFF"/>
<stop offset="1" stop-color="#297FFF"/>
</linearGradient>
</defs>
</svg>
